<mxfile host="app.diagrams.net" agent="Mozilla/5.0 (X11; Ubuntu; Linux x86_64; rv:129.0) Gecko/20100101 Firefox/129.0" version="26.0.5">
  <diagram name="Page-1" id="6133507b-19e7-1e82-6fc7-422aa6c4b21f">
    <mxGraphModel dx="2144" dy="1053" grid="1" gridSize="10" guides="1" tooltips="1" connect="1" arrows="1" fold="1" page="1" pageScale="1" pageWidth="1100" pageHeight="850" background="none" math="0" shadow="0">
      <root>
        <mxCell id="0" />
        <mxCell id="1" parent="0" />
        <mxCell id="78961159f06e98e8-17" value="DecentralizedExchange" style="swimlane;html=1;fontStyle=1;align=center;verticalAlign=top;childLayout=stackLayout;horizontal=1;startSize=26;horizontalStack=0;resizeParent=1;resizeLast=0;collapsible=1;marginBottom=0;swimlaneFillColor=#ffffff;rounded=0;shadow=0;comic=0;labelBackgroundColor=none;strokeWidth=1;fillColor=none;fontFamily=Verdana;fontSize=12" parent="1" vertex="1">
          <mxGeometry x="30" y="100" width="360" height="200" as="geometry" />
        </mxCell>
        <mxCell id="78961159f06e98e8-19" value="" style="line;html=1;strokeWidth=1;fillColor=none;align=left;verticalAlign=middle;spacingTop=-1;spacingLeft=3;spacingRight=3;rotatable=0;labelPosition=right;points=[];portConstraint=eastwest;" parent="78961159f06e98e8-17" vertex="1">
          <mxGeometry y="26" width="360" height="8" as="geometry" />
        </mxCell>
        <mxCell id="78961159f06e98e8-27" value="&lt;div&gt;+ addPool(LiquidityPool: lPool)&lt;/div&gt;&lt;div&gt;+ getAvailableCoins() : Coin[]&lt;/div&gt;&lt;div&gt;+ getAvailablePools() : LiquidityPool[]&lt;/div&gt;&lt;div&gt;+ getExchangeAmount(address lPool, ERC20 sourceCoin,&amp;nbsp; &lt;span style=&quot;white-space: pre;&quot;&gt;&#x9;&lt;/span&gt;&amp;nbsp; &amp;nbsp;&amp;nbsp; ERC20 destCoin, uint256 amount)&lt;/div&gt;&lt;div&gt;+ checkPoolExistence(address pool) : bool&lt;/div&gt;&lt;div&gt;+ addLiquidity(address user, address lPool, ERC20 coin,&lt;/div&gt;&lt;div&gt;&amp;nbsp;&amp;nbsp; uint256 amount)&lt;/div&gt;&lt;div&gt;+ swap(address user, address lPool, ERC20 sourceCoin,&lt;/div&gt;&lt;div&gt;&amp;nbsp;&amp;nbsp; ERC20 destCoin, uint256 amount)&lt;br&gt;&lt;/div&gt;&lt;div&gt;&lt;br&gt;&lt;/div&gt;&lt;div&gt;&lt;br&gt;&lt;/div&gt;" style="text;html=1;strokeColor=none;fillColor=none;align=left;verticalAlign=top;spacingLeft=4;spacingRight=4;whiteSpace=wrap;overflow=hidden;rotatable=0;points=[[0,0.5],[1,0.5]];portConstraint=eastwest;" parent="78961159f06e98e8-17" vertex="1">
          <mxGeometry y="34" width="360" height="166" as="geometry" />
        </mxCell>
        <mxCell id="78961159f06e98e8-43" value="LiquidityPool" style="swimlane;html=1;fontStyle=1;align=center;verticalAlign=top;childLayout=stackLayout;horizontal=1;startSize=26;horizontalStack=0;resizeParent=1;resizeLast=0;collapsible=1;marginBottom=0;swimlaneFillColor=#ffffff;rounded=0;shadow=0;comic=0;labelBackgroundColor=none;strokeWidth=1;fillColor=none;fontFamily=Verdana;fontSize=12" parent="1" vertex="1">
          <mxGeometry x="490" y="90" width="490" height="210" as="geometry" />
        </mxCell>
        <mxCell id="78961159f06e98e8-44" value="&lt;div&gt;+ LiquidityAdded(address indexed user, address poolAddress, uin256 amount,&lt;/div&gt;&lt;div&gt;&amp;nbsp;&amp;nbsp; string&lt;span style=&quot;white-space: pre;&quot;&gt; &lt;/span&gt;sentCoinName,&amp;nbsp;&amp;nbsp; uint256 timestamp) : Event&lt;br&gt;&lt;/div&gt;&lt;div&gt;&lt;div&gt;+ Swapped(address indexed user, address&lt;span style=&quot;white-space: pre;&quot;&gt; &lt;/span&gt;poolAddress, uint256 sentAmount,&lt;/div&gt;&lt;div&gt;&amp;nbsp;&amp;nbsp; uint256 received Amount, string&lt;span style=&quot;white-space: pre;&quot;&gt; &lt;/span&gt;sourceCoin, string destCoin, uint256 timestamp) : Event&lt;br&gt;&lt;/div&gt;&lt;div&gt;&lt;br&gt;&lt;/div&gt;&lt;div&gt;&lt;br&gt;&lt;/div&gt;&lt;div&gt;&lt;br&gt;&lt;br&gt;&lt;/div&gt;&lt;/div&gt;&lt;div&gt;&lt;br&gt;&lt;/div&gt;&lt;div&gt;&lt;br&gt;&lt;/div&gt;" style="text;html=1;strokeColor=none;fillColor=none;align=left;verticalAlign=top;spacingLeft=4;spacingRight=4;whiteSpace=wrap;overflow=hidden;rotatable=0;points=[[0,0.5],[1,0.5]];portConstraint=eastwest;" parent="78961159f06e98e8-43" vertex="1">
          <mxGeometry y="26" width="490" height="74" as="geometry" />
        </mxCell>
        <mxCell id="78961159f06e98e8-51" value="" style="line;html=1;strokeWidth=1;fillColor=none;align=left;verticalAlign=middle;spacingTop=-1;spacingLeft=3;spacingRight=3;rotatable=0;labelPosition=right;points=[];portConstraint=eastwest;" parent="78961159f06e98e8-43" vertex="1">
          <mxGeometry y="100" width="490" height="20" as="geometry" />
        </mxCell>
        <mxCell id="78961159f06e98e8-52" value="&lt;div&gt;+ addLiquidity(address user, ERC20 coin, uint256 amount) : (emits) -&amp;gt; LiquidityAdded&lt;/div&gt;&lt;div&gt;+ swap(address user, ERC20 sourceCoin, ERC20 destCoin, uint256 deposit) : &lt;br&gt;&lt;/div&gt;&lt;div&gt;&amp;nbsp; (emits) -&amp;gt; Swapped&lt;br&gt;&lt;/div&gt;" style="text;html=1;strokeColor=none;fillColor=none;align=left;verticalAlign=top;spacingLeft=4;spacingRight=4;whiteSpace=wrap;overflow=hidden;rotatable=0;points=[[0,0.5],[1,0.5]];portConstraint=eastwest;" parent="78961159f06e98e8-43" vertex="1">
          <mxGeometry y="120" width="490" height="90" as="geometry" />
        </mxCell>
        <mxCell id="b94bc138ca980ef-1" value="&lt;p style=&quot;margin:0px;margin-top:4px;text-align:center;&quot;&gt;&lt;b&gt;ERC20&lt;/b&gt;&lt;br&gt;&lt;/p&gt;&lt;hr size=&quot;1&quot;&gt;&lt;br&gt;&lt;hr size=&quot;1&quot;&gt;&lt;p style=&quot;margin:0px;margin-left:4px;&quot;&gt;+ balanceOf(address user): uint256&lt;br&gt;+ transfer(address recipient, uint265 amount)&lt;/p&gt;&lt;p style=&quot;margin:0px;margin-left:4px;&quot;&gt;+ allowance(address owner, address spender)&lt;/p&gt;&lt;p style=&quot;margin:0px;margin-left:4px;&quot;&gt;+ approve(address spender, uint256 amount)&lt;/p&gt;&lt;p style=&quot;margin:0px;margin-left:4px;&quot;&gt;+ transferFrom(address sender, address recipient, uint 256 amount)&lt;br&gt;&lt;/p&gt;" style="verticalAlign=top;align=left;overflow=fill;fontSize=12;fontFamily=Helvetica;html=1;rounded=0;shadow=0;comic=0;labelBackgroundColor=none;strokeWidth=1" parent="1" vertex="1">
          <mxGeometry x="280" y="390" width="380" height="140" as="geometry" />
        </mxCell>
        <mxCell id="BwIdKE36BoiiZYAxgu1E-5" value="1..*" style="text;html=1;align=center;verticalAlign=middle;resizable=0;points=[];autosize=1;strokeColor=none;fillColor=none;" vertex="1" parent="1">
          <mxGeometry x="460" y="176" width="40" height="30" as="geometry" />
        </mxCell>
        <mxCell id="BwIdKE36BoiiZYAxgu1E-10" value="" style="endArrow=none;html=1;rounded=0;exitX=1;exitY=0.398;exitDx=0;exitDy=0;exitPerimeter=0;" edge="1" parent="1" source="78961159f06e98e8-27">
          <mxGeometry width="50" height="50" relative="1" as="geometry">
            <mxPoint x="380" y="250" as="sourcePoint" />
            <mxPoint x="490" y="200" as="targetPoint" />
          </mxGeometry>
        </mxCell>
        <mxCell id="BwIdKE36BoiiZYAxgu1E-11" value="1" style="text;html=1;align=center;verticalAlign=middle;resizable=0;points=[];autosize=1;strokeColor=none;fillColor=none;" vertex="1" parent="1">
          <mxGeometry x="380" y="176" width="30" height="30" as="geometry" />
        </mxCell>
        <mxCell id="BwIdKE36BoiiZYAxgu1E-12" value="" style="endArrow=none;html=1;rounded=0;entryX=0.531;entryY=0.996;entryDx=0;entryDy=0;entryPerimeter=0;exitX=0;exitY=0.5;exitDx=0;exitDy=0;" edge="1" parent="1" source="b94bc138ca980ef-1" target="78961159f06e98e8-27">
          <mxGeometry width="50" height="50" relative="1" as="geometry">
            <mxPoint x="300" y="370" as="sourcePoint" />
            <mxPoint x="350" y="320" as="targetPoint" />
            <Array as="points">
              <mxPoint x="220" y="460" />
            </Array>
          </mxGeometry>
        </mxCell>
        <mxCell id="BwIdKE36BoiiZYAxgu1E-13" value="*" style="text;html=1;align=center;verticalAlign=middle;resizable=0;points=[];autosize=1;strokeColor=none;fillColor=none;" vertex="1" parent="1">
          <mxGeometry x="220" y="300" width="30" height="30" as="geometry" />
        </mxCell>
        <mxCell id="BwIdKE36BoiiZYAxgu1E-14" value="2..*" style="text;html=1;align=center;verticalAlign=middle;resizable=0;points=[];autosize=1;strokeColor=none;fillColor=none;" vertex="1" parent="1">
          <mxGeometry x="240" y="430" width="40" height="30" as="geometry" />
        </mxCell>
        <mxCell id="BwIdKE36BoiiZYAxgu1E-19" value="" style="endArrow=none;html=1;rounded=0;entryX=0.469;entryY=1.004;entryDx=0;entryDy=0;entryPerimeter=0;exitX=0.016;exitY=0.957;exitDx=0;exitDy=0;exitPerimeter=0;" edge="1" parent="1" source="BwIdKE36BoiiZYAxgu1E-21" target="78961159f06e98e8-52">
          <mxGeometry width="50" height="50" relative="1" as="geometry">
            <mxPoint x="590" y="400" as="sourcePoint" />
            <mxPoint x="640" y="350" as="targetPoint" />
            <Array as="points">
              <mxPoint x="720" y="440" />
            </Array>
          </mxGeometry>
        </mxCell>
        <mxCell id="BwIdKE36BoiiZYAxgu1E-20" value="*" style="text;html=1;align=center;verticalAlign=middle;resizable=0;points=[];autosize=1;strokeColor=none;fillColor=none;" vertex="1" parent="1">
          <mxGeometry x="690" y="300" width="30" height="30" as="geometry" />
        </mxCell>
        <mxCell id="BwIdKE36BoiiZYAxgu1E-21" value="2" style="text;html=1;align=center;verticalAlign=middle;resizable=0;points=[];autosize=1;strokeColor=none;fillColor=none;" vertex="1" parent="1">
          <mxGeometry x="660" y="410" width="30" height="30" as="geometry" />
        </mxCell>
      </root>
    </mxGraphModel>
  </diagram>
</mxfile>
